<svg xmlns="http://www.w3.org/2000/svg" viewBox="0 0 800 600" style="background: linear-gradient(135deg, #DC143C 0%, #B22222 50%, #8B0000 100%);">
  <defs>
    <!-- Cookie Gradient -->
    <radialGradient id="pomegranateGrad" cx="50%" cy="40%" r="60%">
      <stop offset="0%" style="stop-color:#F5DEB3;stop-opacity:1" />
      <stop offset="50%" style="stop-color:#DEB887;stop-opacity:1" />
      <stop offset="100%" style="stop-color:#D2B48C;stop-opacity:1" />
    </radialGradient>
    
    <!-- Pomegranate Seed Gradient -->
    <radialGradient id="seedGrad" cx="30%" cy="30%" r="70%">
      <stop offset="0%" style="stop-color:#FF6347;stop-opacity:1" />
      <stop offset="100%" style="stop-color:#DC143C;stop-opacity:1" />
    </radialGradient>
    
    <!-- Ruby Pattern -->
    <pattern id="rubyPattern" patternUnits="userSpaceOnUse" width="50" height="50">
      <circle cx="25" cy="25" r="2" fill="#DC143C" opacity="0.3"/>
      <circle cx="10" cy="10" r="1" fill="#FF6347" opacity="0.4"/>
      <circle cx="40" cy="15" r="1.5" fill="#B22222" opacity="0.3"/>
    </pattern>
  </defs>
  
  <!-- Background -->
  <rect width="800" height="600" fill="url(#rubyPattern)" opacity="0.4"/>
  
  <!-- Main Cookie -->
  <circle cx="400" cy="300" r="118" fill="url(#pomegranateGrad)" stroke="#D2B48C" stroke-width="3"/>
  
  <!-- Cookie Texture -->
  <circle cx="380" cy="275" r="7" fill="#D2B48C" opacity="0.7"/>
  <circle cx="420" cy="285" r="6" fill="#D2B48C" opacity="0.7"/>
  <circle cx="395" cy="320" r="8" fill="#D2B48C" opacity="0.7"/>
  <circle cx="415" cy="325" r="5" fill="#D2B48C" opacity="0.7"/>
  <circle cx="385" cy="345" r="6" fill="#D2B48C" opacity="0.7"/>
  
  <!-- Pomegranate Seeds -->
  <g fill="url(#seedGrad)">
    <circle cx="365" cy="270" r="3" opacity="0.9"/>
    <circle cx="385" cy="265" r="2.5" opacity="0.9"/>
    <circle cx="430" cy="290" r="3" opacity="0.9"/>
    <circle cx="440" cy="310" r="2" opacity="0.9"/>
    <circle cx="375" cy="315" r="2.5" opacity="0.9"/>
    <circle cx="395" cy="310" r="3" opacity="0.9"/>
    <circle cx="420" cy="320" r="2" opacity="0.9"/>
    <circle cx="410" cy="340" r="2.5" opacity="0.9"/>
    <circle cx="390" cy="335" r="2" opacity="0.9"/>
    <circle cx="370" cy="345" r="3" opacity="0.9"/>
  </g>
  
  <!-- Scattered Pomegranate Seeds -->
  <g fill="url(#seedGrad)" opacity="0.8">
    <circle cx="250" cy="200" r="2"/>
    <circle cx="270" cy="180" r="2.5"/>
    <circle cx="530" cy="180" r="2"/>
    <circle cx="550" cy="200" r="3"/>
    <circle cx="580" cy="400" r="2.5"/>
    <circle cx="600" cy="420" r="2"/>
    <circle cx="220" cy="400" r="2"/>
    <circle cx="200" cy="420" r="2.5"/>
  </g>
  
  <!-- Mint Leaves -->
  <g fill="#90EE90" stroke="#228B22" stroke-width="1" opacity="0.7">
    <ellipse cx="320" cy="150" rx="8" ry="4" transform="rotate(30 320 150)"/>
    <ellipse cx="315" cy="155" rx="6" ry="3" transform="rotate(45 315 155)"/>
    <ellipse cx="480" cy="140" rx="7" ry="4" transform="rotate(-20 480 140)"/>
    <ellipse cx="485" cy="145" rx="5" ry="3" transform="rotate(-35 485 145)"/>
    <ellipse cx="520" cy="460" rx="8" ry="4" transform="rotate(60 520 460)"/>
    <ellipse cx="280" cy="450" rx="7" ry="4" transform="rotate(-45 280 450)"/>
  </g>
  
  <!-- Ruby Crystals -->
  <g fill="#DC143C" opacity="0.6">
    <polygon points="300,120 305,110 310,120 305,130"/>
    <polygon points="500,100 505,90 510,100 505,110"/>
    <polygon points="550,500 555,490 560,500 555,510"/>
    <polygon points="250,480 255,470 260,480 255,490"/>
  </g>
  
  <!-- Sparkles -->
  <g fill="#FF6347">
    <polygon points="180,100 182,108 190,108 184,112 186,120 180,116 174,120 176,112 170,108 178,108" opacity="0.9"/>
    <polygon points="620,80 623,90 633,90 625,96 628,106 620,100 612,106 615,96 607,90 617,90" opacity="0.8"/>
    <polygon points="650,520 652,526 658,526 654,530 656,536 650,532 644,536 646,530 642,526 648,526" opacity="0.9"/>
    <polygon points="150,500 152,506 158,506 154,510 156,516 150,512 144,516 146,510 142,506 148,506" opacity="0.7"/>
  </g>
  
  <!-- Exotic Border -->
  <g stroke="#DC143C" stroke-width="2" fill="none" opacity="0.5">
    <polygon points="80,80 90,70 100,80 90,90"/>
    <polygon points="700,80 710,70 720,80 710,90"/>
    <polygon points="80,520 90,510 100,520 90,530"/>
    <polygon points="700,520 710,510 720,520 710,530"/>
  </g>
  
  <!-- Text -->
  <text x="400" y="500" text-anchor="middle" font-family="serif" font-size="32" font-weight="bold" fill="#F5DEB3">
    Pomegranate Surprise
  </text>
  <text x="400" y="530" text-anchor="middle" font-family="sans-serif" font-size="16" fill="#F5DEB3" opacity="0.9">
    Unique Cookies with Pomegranate Seeds & Mint from Herat Gardens
  </text>
</svg>